<?xml version="1.0" encoding="UTF-8"?>
<svg height="128px" viewBox="0 0 128 128" width="128px" xmlns="http://www.w3.org/2000/svg" xmlns:xlink="http://www.w3.org/1999/xlink">
    <linearGradient id="a" gradientUnits="userSpaceOnUse" x1="20.003571" x2="108.003449" y1="64.000335" y2="64.000335">
        <stop offset="0.0127878" stop-color="#faf0e6"/>
        <stop offset="0.0324034" stop-color="#f3dfc4"/>
        <stop offset="0.483754" stop-color="#f3dfc4"/>
        <stop offset="0.970542" stop-color="#f3dfc4"/>
        <stop offset="0.987935" stop-color="#faf0e6"/>
    </linearGradient>
    <path d="m 29.117188 8 h 69.773437 c 5.03125 0 9.113281 4.082031 9.113281 9.113281 v 93.773438 c 0 5.03125 -4.082031 9.113281 -9.113281 9.113281 h -69.773437 c -5.035157 0 -9.113282 -4.082031 -9.113282 -9.113281 v -93.773438 c 0 -5.03125 4.078125 -9.113281 9.113282 -9.113281 z m 0 0" fill="url(#a)"/>
    <path d="m 29.894531 13.371094 h 68.21875 c 2.953125 0 5.347657 2.390625 5.347657 5.347656 v 91.933594 c 0 2.953125 -2.394532 5.347656 -5.347657 5.347656 h -68.21875 c -2.953125 0 -5.347656 -2.394531 -5.347656 -5.347656 v -91.933594 c 0 -2.957031 2.394531 -5.347656 5.347656 -5.347656 z m 0 0" fill="#2b2829"/>
    <path d="m 31.355469 89.210938 h 65.296875 c 0.933594 0 1.691406 0.753906 1.691406 1.6875 v 17.617187 c 0 0.933594 -0.757812 1.6875 -1.691406 1.6875 h -65.296875 c -0.933594 0 -1.691407 -0.753906 -1.691407 -1.6875 v -17.617187 c 0 -0.933594 0.757813 -1.6875 1.691407 -1.6875 z m 0 0" fill="#fec361" stroke="#d56931" stroke-width="0.525267"/>
    <path d="m 60.523438 98.695312 v -1.296874 h 6.953124 v 1.296874 z m 6.953124 3.328126 h -6.953124 v -1.3125 h 6.953124 z m -8.140624 -13.984376" fill="#50302a"/>
    <path d="m 31.648438 64.683594 h 15.285156 c 0.808594 0 1.464844 0.65625 1.464844 1.46875 v 15.28125 c 0 0.8125 -0.65625 1.46875 -1.464844 1.46875 h -15.285156 c -0.808594 0 -1.464844 -0.65625 -1.464844 -1.46875 v -15.28125 c 0 -0.8125 0.65625 -1.46875 1.464844 -1.46875 z m 0 0" fill="#fdfbf7"/>
    <path d="m 56.359375 64.683594 h 15.28125 c 0.8125 0 1.46875 0.65625 1.46875 1.46875 v 15.28125 c 0 0.8125 -0.65625 1.46875 -1.46875 1.46875 h -15.28125 c -0.8125 0 -1.46875 -0.65625 -1.46875 -1.46875 v -15.28125 c 0 -0.8125 0.65625 -1.46875 1.46875 -1.46875 z m 0 0" fill="#fdfbf7"/>
    <path d="m 31.648438 42.472656 h 15.285156 c 0.808594 0 1.464844 0.65625 1.464844 1.464844 v 15.285156 c 0 0.808594 -0.65625 1.464844 -1.464844 1.464844 h -15.285156 c -0.808594 0 -1.464844 -0.65625 -1.464844 -1.464844 v -15.285156 c 0 -0.808594 0.65625 -1.464844 1.464844 -1.464844 z m 0 0" fill="#fdfbf7"/>
    <path d="m 56.359375 42.472656 h 15.28125 c 0.8125 0 1.46875 0.65625 1.46875 1.464844 v 15.285156 c 0 0.808594 -0.65625 1.464844 -1.46875 1.464844 h -15.28125 c -0.8125 0 -1.46875 -0.65625 -1.46875 -1.464844 v -15.285156 c 0 -0.808594 0.65625 -1.464844 1.46875 -1.464844 z m 0 0" fill="#fdfbf7"/>
    <path d="m 81.066406 64.683594 h 15.285156 c 0.808594 0 1.464844 0.65625 1.464844 1.46875 v 15.28125 c 0 0.8125 -0.65625 1.46875 -1.464844 1.46875 h -15.285156 c -0.808594 0 -1.464844 -0.65625 -1.464844 -1.46875 v -15.28125 c 0 -0.8125 0.65625 -1.46875 1.464844 -1.46875 z m 0 0" fill="#f4ddc0"/>
    <path d="m 81.066406 42.472656 h 15.285156 c 0.808594 0 1.464844 0.65625 1.464844 1.464844 v 15.285156 c 0 0.808594 -0.65625 1.464844 -1.464844 1.464844 h -15.285156 c -0.808594 0 -1.464844 -0.65625 -1.464844 -1.464844 v -15.285156 c 0 -0.808594 0.65625 -1.464844 1.464844 -1.464844 z m 0 0" fill="#f4ddc0"/>
    <path d="m 81.066406 20.257812 h 15.285156 c 0.808594 0 1.464844 0.65625 1.464844 1.464844 v 15.285156 c 0 0.808594 -0.65625 1.464844 -1.464844 1.464844 h -15.285156 c -0.808594 0 -1.464844 -0.65625 -1.464844 -1.464844 v -15.285156 c 0 -0.808594 0.65625 -1.464844 1.464844 -1.464844 z m 0 0" fill="#f4ddc0"/>
    <path d="m 56.359375 20.257812 h 15.28125 c 0.8125 0 1.46875 0.65625 1.46875 1.464844 v 15.285156 c 0 0.808594 -0.65625 1.464844 -1.46875 1.464844 h -15.28125 c -0.8125 0 -1.46875 -0.65625 -1.46875 -1.464844 v -15.285156 c 0 -0.808594 0.65625 -1.464844 1.46875 -1.464844 z m 0 0" fill="#f4ddc0"/>
    <path d="m 31.648438 20.257812 h 15.285156 c 0.808594 0 1.464844 0.65625 1.464844 1.464844 v 15.285156 c 0 0.808594 -0.65625 1.464844 -1.464844 1.464844 h -15.285156 c -0.808594 0 -1.464844 -0.65625 -1.464844 -1.464844 v -15.285156 c 0 -0.808594 0.65625 -1.464844 1.464844 -1.464844 z m 0 0" fill="#f4ddc0"/>
    <g fill="#50302a">
        <path d="m 39.296875 77.789062 c -0.199219 0 -0.398437 -0.023437 -0.59375 -0.0625 c -0.1875 -0.03125 -0.367187 -0.09375 -0.53125 -0.1875 c -0.15625 -0.09375 -0.304687 -0.210937 -0.4375 -0.359374 c -0.125 -0.144532 -0.230469 -0.300782 -0.3125 -0.46875 c -0.074219 -0.175782 -0.125 -0.359376 -0.15625 -0.546876 c -0.03125 -0.195312 -0.046875 -0.394531 -0.046875 -0.59375 v -3.5625 c 0 -0.195312 0.015625 -0.390624 0.046875 -0.578124 c 0.03125 -0.195313 0.082031 -0.378907 0.15625 -0.546876 c 0.082031 -0.175781 0.1875 -0.335937 0.3125 -0.484374 c 0.132813 -0.144532 0.28125 -0.265626 0.4375 -0.359376 c 0.164063 -0.09375 0.34375 -0.15625 0.53125 -0.1875 c 0.195313 -0.039062 0.394531 -0.0625 0.59375 -0.0625 c 0.1875 0 0.375 0.023438 0.5625 0.0625 c 0.195313 0.03125 0.375 0.09375 0.53125 0.1875 c 0.164063 0.09375 0.316406 0.214844 0.453125 0.359376 c 0.132812 0.148437 0.238281 0.308593 0.3125 0.484374 c 0.082031 0.167969 0.132812 0.351563 0.15625 0.546876 c 0.03125 0.1875 0.046875 0.382812 0.046875 0.578124 v 3.5625 c 0 0.199219 -0.015625 0.398438 -0.046875 0.59375 c -0.023438 0.1875 -0.074219 0.371094 -0.15625 0.546876 c -0.074219 0.167968 -0.179688 0.324218 -0.3125 0.46875 c -0.136719 0.148437 -0.289062 0.265624 -0.453125 0.359374 c -0.15625 0.09375 -0.335937 0.15625 -0.53125 0.1875 c -0.1875 0.039063 -0.375 0.0625 -0.5625 0.0625 z m -1.234375 -3.46875 l 2.46875 -1.984374 v -0.328126 c 0 -0.125 -0.011719 -0.242187 -0.03125 -0.359374 c -0.011719 -0.125 -0.039062 -0.242188 -0.078125 -0.359376 c -0.042969 -0.113281 -0.101563 -0.21875 -0.171875 -0.3125 c -0.074219 -0.101562 -0.164062 -0.1875 -0.265625 -0.25 c -0.09375 -0.070312 -0.203125 -0.125 -0.328125 -0.15625 s -0.246094 -0.046874 -0.359375 -0.046874 c -0.125 0 -0.25 0.015624 -0.375 0.046874 c -0.117187 0.03125 -0.226563 0.085938 -0.328125 0.15625 c -0.09375 0.0625 -0.183594 0.148438 -0.265625 0.25 c -0.074219 0.09375 -0.132813 0.199219 -0.171875 0.3125 c -0.042969 0.117188 -0.070312 0.234376 -0.078125 0.359376 c -0.011719 0.117187 -0.015625 0.234374 -0.015625 0.359374 z m 1.234375 2.734376 c 0.113281 0 0.234375 -0.015626 0.359375 -0.046876 s 0.234375 -0.078124 0.328125 -0.140624 c 0.101563 -0.070313 0.191406 -0.15625 0.265625 -0.25 c 0.070312 -0.101563 0.128906 -0.210938 0.171875 -0.328126 c 0.039063 -0.113281 0.066406 -0.226562 0.078125 -0.34375 c 0.019531 -0.125 0.03125 -0.25 0.03125 -0.375 v -2.3125 l -2.46875 1.984376 v 0.328124 c 0 0.125 0.003906 0.25 0.015625 0.375 c 0.007813 0.117188 0.035156 0.230469 0.078125 0.34375 c 0.039062 0.117188 0.097656 0.226563 0.171875 0.328126 c 0.082031 0.09375 0.171875 0.179687 0.265625 0.25 c 0.101562 0.0625 0.210938 0.109374 0.328125 0.140624 c 0.125 0.03125 0.25 0.046876 0.375 0.046876 z m -2.671875 -9.636719"/>
        <path d="m 64.566406 77.710938 v -6.890626 l -1.484375 1.0625 l -0.46875 -0.609374 l 1.953125 -1.40625 h 0.828125 v 7.84375 z m -2.578125 -10.292969"/>
        <path d="m 37.300781 55.539062 v -0.015624 c 0 -0.1875 0 -0.375 0 -0.5625 c 0.007813 -0.195313 0.03125 -0.390626 0.0625 -0.578126 c 0.03125 -0.195312 0.078125 -0.382812 0.140625 -0.5625 c 0.0625 -0.1875 0.132813 -0.363281 0.21875 -0.53125 c 0.09375 -0.175781 0.195313 -0.34375 0.3125 -0.5 c 0.113282 -0.15625 0.238282 -0.300781 0.375 -0.4375 c 0.144532 -0.132812 0.289063 -0.257812 0.4375 -0.375 c 0.15625 -0.113281 0.3125 -0.226562 0.46875 -0.34375 c 0.15625 -0.113281 0.304688 -0.234374 0.453125 -0.359374 c 0.15625 -0.125 0.285157 -0.265626 0.390625 -0.421876 c 0.101563 -0.164062 0.179688 -0.34375 0.234375 -0.53125 c 0.050781 -0.1875 0.078125 -0.375 0.078125 -0.5625 c 0 -0.175781 -0.023437 -0.347656 -0.0625 -0.515624 c -0.03125 -0.175782 -0.101562 -0.332032 -0.203125 -0.46875 c -0.105469 -0.144532 -0.242187 -0.25 -0.40625 -0.3125 c -0.167969 -0.070313 -0.339843 -0.109376 -0.515625 -0.109376 c -0.15625 0 -0.3125 0.027344 -0.46875 0.078126 c -0.15625 0.054687 -0.292968 0.136718 -0.40625 0.25 c -0.105468 0.117187 -0.183594 0.25 -0.234375 0.40625 c -0.042969 0.148437 -0.0625 0.304687 -0.0625 0.46875 v 0.015624 h -0.84375 s 0 -0.003906 0 -0.015624 c 0 -0.007813 0 -0.019532 0 -0.03125 c 0 -0.164063 0.019531 -0.332032 0.0625 -0.5 c 0.039063 -0.175782 0.101563 -0.34375 0.1875 -0.5 c 0.082031 -0.15625 0.1875 -0.289063 0.3125 -0.40625 c 0.132813 -0.125 0.28125 -0.222657 0.4375 -0.296876 c 0.15625 -0.082031 0.316407 -0.132812 0.484375 -0.15625 c 0.175782 -0.03125 0.351563 -0.046874 0.53125 -0.046874 c 0.1875 0 0.375 0.015624 0.5625 0.046874 s 0.359375 0.09375 0.515625 0.1875 c 0.164063 0.09375 0.3125 0.214844 0.4375 0.359376 c 0.125 0.136718 0.222657 0.292968 0.296875 0.46875 c 0.082032 0.167968 0.140625 0.34375 0.171875 0.53125 c 0.03125 0.179687 0.046875 0.359374 0.046875 0.546874 c 0 0.210938 -0.027344 0.417969 -0.078125 0.625 c -0.042969 0.199219 -0.117187 0.386719 -0.21875 0.5625 c -0.09375 0.179688 -0.210937 0.34375 -0.34375 0.5 c -0.136719 0.15625 -0.28125 0.304688 -0.4375 0.4375 c -0.15625 0.136719 -0.320312 0.265626 -0.484375 0.390626 c -0.167968 0.125 -0.328125 0.257812 -0.484375 0.390624 c -0.148437 0.136719 -0.289062 0.28125 -0.421875 0.4375 c -0.136718 0.15625 -0.257812 0.328126 -0.359375 0.515626 c -0.09375 0.179687 -0.171875 0.367187 -0.234375 0.5625 c -0.054687 0.199218 -0.089844 0.402343 -0.109375 0.609374 h 3.125 v 0.75 z m -0.6875 -10.292968"/>
        <path d="m 64.003906 55.578125 c -0.1875 0 -0.375 -0.015625 -0.5625 -0.046875 c -0.179687 -0.023438 -0.351562 -0.066406 -0.515625 -0.140625 c -0.15625 -0.082031 -0.304687 -0.1875 -0.4375 -0.3125 c -0.136719 -0.125 -0.25 -0.265625 -0.34375 -0.421875 s -0.164062 -0.320312 -0.203125 -0.5 c -0.042968 -0.1875 -0.0625 -0.367188 -0.0625 -0.546875 c 0 -0.007813 0 -0.015625 0 -0.015625 h 0.828125 c 0 0.179688 0.03125 0.351562 0.09375 0.515625 c 0.0625 0.15625 0.148438 0.292969 0.265625 0.40625 c 0.125 0.117187 0.265625 0.199219 0.421875 0.25 c 0.164063 0.054687 0.335938 0.078125 0.515625 0.078125 c 0.175782 0 0.347656 -0.03125 0.515625 -0.09375 c 0.175781 -0.070312 0.320313 -0.175781 0.4375 -0.3125 c 0.125 -0.132812 0.207031 -0.289062 0.25 -0.46875 c 0.050781 -0.175781 0.078125 -0.359375 0.078125 -0.546875 c 0 -0.15625 -0.015625 -0.304687 -0.046875 -0.453125 c -0.03125 -0.144531 -0.085937 -0.28125 -0.15625 -0.40625 c -0.0625 -0.132812 -0.152343 -0.253906 -0.265625 -0.359375 c -0.117187 -0.101563 -0.242187 -0.179687 -0.375 -0.234375 c -0.125 -0.0625 -0.265625 -0.101562 -0.421875 -0.125 c -0.148437 -0.019531 -0.296875 -0.03125 -0.453125 -0.03125 v -0.734375 c 0.132813 0 0.269532 -0.003906 0.40625 -0.015625 c 0.132813 -0.019531 0.265625 -0.054688 0.390625 -0.109375 c 0.125 -0.050781 0.234375 -0.125 0.328125 -0.21875 c 0.101563 -0.101563 0.1875 -0.210937 0.25 -0.328125 c 0.0625 -0.125 0.109375 -0.253906 0.140625 -0.390625 c 0.03125 -0.132813 0.046875 -0.269531 0.046875 -0.40625 c 0 -0.164063 -0.023437 -0.328125 -0.0625 -0.484375 c -0.042968 -0.15625 -0.117187 -0.296875 -0.21875 -0.421875 c -0.09375 -0.125 -0.21875 -0.21875 -0.375 -0.28125 c -0.148437 -0.070313 -0.304687 -0.109375 -0.46875 -0.109375 c -0.15625 0 -0.308594 0.03125 -0.453125 0.09375 c -0.148437 0.054688 -0.273437 0.136719 -0.375 0.25 c -0.105469 0.105469 -0.183593 0.234375 -0.234375 0.390625 c -0.042968 0.148437 -0.0625 0.296875 -0.0625 0.453125 v 0.015625 v 0.015625 h -0.828125 c 0 -0.007812 0 -0.019531 0 -0.03125 c 0 -0.007812 0 -0.015625 0 -0.015625 c 0 -0.175781 0.015625 -0.347656 0.046875 -0.515625 c 0.039063 -0.164062 0.097656 -0.320312 0.171875 -0.46875 c 0.082031 -0.15625 0.1875 -0.296875 0.3125 -0.421875 s 0.265625 -0.222656 0.421875 -0.296875 c 0.15625 -0.070312 0.316406 -0.125 0.484375 -0.15625 c 0.164063 -0.03125 0.335938 -0.046875 0.515625 -0.046875 c 0.175782 0 0.347656 0.015625 0.515625 0.046875 c 0.175781 0.03125 0.34375 0.089844 0.5 0.171875 c 0.15625 0.085937 0.289063 0.195313 0.40625 0.328125 c 0.125 0.125 0.222657 0.273438 0.296875 0.4375 c 0.082032 0.15625 0.140625 0.324219 0.171875 0.5 c 0.039063 0.179688 0.0625 0.355469 0.0625 0.53125 c 0 0.179688 -0.027343 0.367188 -0.078125 0.5625 c -0.042968 0.1875 -0.109375 0.367188 -0.203125 0.53125 c -0.09375 0.167969 -0.214843 0.3125 -0.359375 0.4375 c -0.148437 0.125 -0.304687 0.230469 -0.46875 0.3125 c 0.1875 0.074219 0.363282 0.183594 0.53125 0.328125 c 0.164063 0.136719 0.300782 0.296875 0.40625 0.484375 c 0.113282 0.179688 0.195313 0.371094 0.25 0.578125 c 0.0625 0.199219 0.09375 0.40625 0.09375 0.625 c 0 0.1875 -0.023437 0.375 -0.0625 0.5625 c -0.042968 0.1875 -0.105468 0.367187 -0.1875 0.53125 c -0.085937 0.167969 -0.195312 0.324219 -0.328125 0.46875 c -0.136719 0.136719 -0.289062 0.25 -0.453125 0.34375 c -0.167968 0.085937 -0.34375 0.140625 -0.53125 0.171875 s -0.375 0.046875 -0.5625 0.046875 z m -2.703125 -10.371094"/>
        <path d="m 86.234375 52.050781 v -0.9375 h 4.953125 v 0.9375 z m -0.859375 -13.804687"/>
        <path d="m 89.234375 76.375 h -1.046875 v -2.109375 h -1.953125 v -0.9375 h 1.953125 v -2.109375 h 1.046875 v 2.109375 h 1.953125 v 0.9375 h -1.953125 z m -3.859375 -10.914062"/>
        <path d="m 39.285156 27.828125 c -0.125 0 -0.25 -0.015625 -0.375 -0.046875 c -0.125 -0.039062 -0.234375 -0.101562 -0.328125 -0.1875 c -0.085937 -0.09375 -0.140625 -0.203125 -0.171875 -0.328125 s -0.046875 -0.25 -0.046875 -0.375 s 0.015625 -0.25 0.046875 -0.375 s 0.085938 -0.226563 0.171875 -0.3125 c 0.09375 -0.09375 0.203125 -0.15625 0.328125 -0.1875 c 0.125 -0.039063 0.25 -0.0625 0.375 -0.0625 s 0.25 0.023437 0.375 0.0625 c 0.125 0.03125 0.226563 0.09375 0.3125 0.1875 c 0.09375 0.085937 0.160156 0.1875 0.203125 0.3125 c 0.039063 0.125 0.0625 0.25 0.0625 0.375 s -0.023437 0.25 -0.0625 0.375 c -0.042969 0.125 -0.109375 0.234375 -0.203125 0.328125 c -0.085937 0.085938 -0.1875 0.148438 -0.3125 0.1875 c -0.125 0.03125 -0.25 0.046875 -0.375 0.046875 z m -2.46875 2.015625 v -0.9375 h 4.953125 v 0.9375 z m 2.46875 2.9375 c -0.125 0 -0.25 -0.015625 -0.375 -0.046875 s -0.234375 -0.09375 -0.328125 -0.1875 c -0.085937 -0.09375 -0.140625 -0.195313 -0.171875 -0.3125 c -0.03125 -0.125 -0.046875 -0.25 -0.046875 -0.375 s 0.015625 -0.25 0.046875 -0.375 s 0.085938 -0.226563 0.171875 -0.3125 c 0.09375 -0.09375 0.203125 -0.160156 0.328125 -0.203125 c 0.125 -0.039062 0.25 -0.0625 0.375 -0.0625 s 0.25 0.023438 0.375 0.0625 c 0.125 0.042969 0.226563 0.109375 0.3125 0.203125 c 0.09375 0.085937 0.160156 0.1875 0.203125 0.3125 c 0.039063 0.125 0.0625 0.25 0.0625 0.375 s -0.023437 0.25 -0.0625 0.375 c -0.042969 0.117187 -0.109375 0.21875 -0.203125 0.3125 c -0.085937 0.09375 -0.1875 0.15625 -0.3125 0.1875 s -0.25 0.046875 -0.375 0.046875 z m -3.328125 -11.742188"/>
        <path d="m 61.371094 32.832031 l 2.0625 -3.46875 l -2.0625 -3.46875 h 1.21875 l 1.40625 2.484375 l 1.421875 -2.484375 h 1.203125 l -2.046875 3.46875 l 2.046875 3.46875 h -1.203125 l -1.421875 -2.484375 l -1.40625 2.484375 z m -0.703125 -12.867187"/>
        <path d="m 88.710938 32.941406 c -0.230469 0 -0.46875 -0.027344 -0.71875 -0.078125 c -0.242188 -0.050781 -0.464844 -0.132812 -0.671876 -0.25 c -0.199218 -0.125 -0.375 -0.273437 -0.53125 -0.453125 c -0.15625 -0.1875 -0.28125 -0.382812 -0.375 -0.59375 c -0.09375 -0.21875 -0.164062 -0.445312 -0.203124 -0.6875 c -0.03125 -0.238281 -0.046876 -0.476562 -0.046876 -0.71875 v -1.59375 c 0 -0.238281 0.015626 -0.472656 0.046876 -0.703125 c 0.039062 -0.238281 0.109374 -0.46875 0.203124 -0.6875 s 0.21875 -0.414062 0.375 -0.59375 c 0.15625 -0.1875 0.332032 -0.335937 0.53125 -0.453125 c 0.207032 -0.125 0.429688 -0.207031 0.671876 -0.25 c 0.25 -0.050781 0.488281 -0.078125 0.71875 -0.078125 c 0.21875 0 0.4375 0.023438 0.65625 0.0625 c 0.226562 0.03125 0.441406 0.101563 0.640624 0.203125 c 0.195313 0.09375 0.375 0.21875 0.53125 0.375 c 0.164063 0.15625 0.300782 0.335938 0.40625 0.53125 c 0.101563 0.1875 0.179688 0.390625 0.234376 0.609375 c 0.050781 0.21875 0.078124 0.445313 0.078124 0.671875 v 0.015625 h -1.046874 c 0 -0.007812 0 -0.015625 0 -0.015625 c 0 -0.195312 -0.03125 -0.394531 -0.09375 -0.59375 c -0.0625 -0.195312 -0.167969 -0.367187 -0.3125 -0.515625 c -0.136719 -0.144531 -0.304688 -0.25 -0.5 -0.3125 c -0.199219 -0.070312 -0.398438 -0.109375 -0.59375 -0.109375 c -0.15625 0 -0.308594 0.023438 -0.453126 0.0625 c -0.148437 0.03125 -0.28125 0.09375 -0.40625 0.1875 c -0.125 0.085938 -0.230468 0.1875 -0.3125 0.3125 c -0.085937 0.125 -0.152343 0.261719 -0.203124 0.40625 c -0.054688 0.136719 -0.089844 0.28125 -0.109376 0.4375 c -0.023437 0.148438 -0.03125 0.292969 -0.03125 0.4375 v 1.59375 c 0 0.15625 0.007813 0.3125 0.03125 0.46875 c 0.019532 0.148438 0.054688 0.289063 0.109376 0.421875 c 0.050781 0.136719 0.117187 0.265625 0.203124 0.390625 c 0.082032 0.125 0.1875 0.234375 0.3125 0.328125 c 0.125 0.085938 0.257813 0.148438 0.40625 0.1875 c 0.144532 0.03125 0.296876 0.046875 0.453126 0.046875 c 0.195312 0 0.394531 -0.03125 0.59375 -0.09375 c 0.195312 -0.070312 0.363281 -0.179687 0.5 -0.328125 c 0.144531 -0.144531 0.25 -0.3125 0.3125 -0.5 c 0.0625 -0.195312 0.09375 -0.398437 0.09375 -0.609375 c 0 -0.007812 0 -0.015625 0 -0.015625 h 1.046874 v 0.03125 c 0 0.21875 -0.027343 0.4375 -0.078124 0.65625 c -0.054688 0.21875 -0.132813 0.429688 -0.234376 0.625 c -0.105468 0.199219 -0.242187 0.375 -0.40625 0.53125 c -0.15625 0.148438 -0.335937 0.273438 -0.53125 0.375 c -0.199218 0.09375 -0.414062 0.160157 -0.640624 0.203125 c -0.21875 0.039063 -0.4375 0.0625 -0.65625 0.0625 z m -3.296876 -12.976562"/>
    </g>
</svg>
